<!-- Generated by IcoMoon.io -->
<svg version="1.1" xmlns="http://www.w3.org/2000/svg" width="24" height="24" viewBox="0 0 24 24">
<title>freecodecamp</title>
<path d="M23.967 12.317c0 2.5-0.854 4.718-2.598 6.681-0.635 0.729-1.143 1.076-1.488 1.076-0.121 0-0.256-0.033-0.346-0.125-0.092-0.096-0.15-0.223-0.15-0.35 0-0.188 0.225-0.475 0.674-0.889 1.814-1.736 2.727-3.895 2.727-6.456 0-2.846-0.943-5.152-2.816-6.936-0.374-0.342-0.57-0.627-0.57-0.852 0-0.12 0.061-0.256 0.164-0.345 0.105-0.090 0.225-0.149 0.346-0.149 0.418 0 1.049 0.509 1.842 1.527 1.498 1.903 2.248 4.195 2.248 6.846l-0.033-0.028zM0 11.682c0-2.499 0.854-4.719 2.598-6.681 0.635-0.729 1.143-1.076 1.49-1.076 0.119 0 0.254 0.033 0.344 0.125 0.090 0.095 0.15 0.189 0.15 0.314 0 0.188-0.225 0.477-0.674 0.918-1.781 1.744-2.711 3.895-2.711 6.462 0 2.847 0.951 5.158 2.821 6.935 0.38 0.344 0.569 0.633 0.569 0.854 0 0.127-0.061 0.256-0.16 0.348-0.099 0.094-0.225 0.16-0.352 0.16-0.436 0-1.033-0.51-1.828-1.518-1.513-1.869-2.247-4.15-2.247-6.841zM17.699 18.551h-10.984c-0.35 0-0.668-0.287-0.668-0.666 0-0.383 0.285-0.668 0.668-0.668h10.984c0.348 0 0.668 0.285 0.668 0.668-0.006 0.385-0.287 0.666-0.668 0.666zM11.699 9.632c0.197-0.025 0.344 0.615 0.361 0.749 0.046 0.353-0.071 0.693-0.231 1.003-0.597 1.165-1.978 2.104-1.612 3.575 0.166 0.635 0.494 1.076 1.514 1.619-0.345 0.119-0.824-0.111-1.094-0.301-1.199-0.816-1.963-2.156-1.888-3.619 0.030-0.464 0.12-0.92 0.239-1.368 0.375-1.281 1.139-2.401 1.588-3.647 0.225-0.599 0.39-1.324 0.211-1.953-0.090-0.309-0.255-0.599-0.465-0.849-0.061-0.076-0.404-0.465-0.539-0.42 0.6-0.225 1.139-0.016 1.662 0.299 0.404 0.24 0.72 0.585 0.959 0.975 0.449 0.719 0.629 1.542 0.719 2.381 0.031 0.345-0.015 1.184 0.39 1.35 0.419 0.179 0.749-0.525 0.839-0.81 0.195-0.645-0.060-1.259-0.314-1.858 0.061 0.121 0.285 0.255 0.389 0.346l0.36 0.344c0.435 0.449 0.704 1.004 0.884 1.604 0.164 0.539 0.24 1.093 0.27 1.633 0.074 1.123-0.18 2.278-0.629 3.311-0.195 0.463-0.449 0.898-0.779 1.273-0.319 0.373-0.748 0.613-1.093 0.957 0.808-0.809 1.238-2.127 1.123-3.131-0.060-0.553-0.239-1.063-0.659-1.572 0 0 0.045 0.358 0.087 0.583 0.075 0.495-0.255 1.020-0.644 0.959-0.285-0.029-0.136-0.643-0.105-0.838 0.105-0.584-0.030-1.154-0.244-1.693-0.209-0.509-0.6-0.914-1.198-0.823l-0.101-0.079z"></path>
</svg>
