<?xml version="1.0" standalone="no"?>
<!DOCTYPE svg PUBLIC "-//W3C//DTD SVG 20010904//EN"
 "http://www.w3.org/TR/2001/REC-SVG-20010904/DTD/svg10.dtd">
<svg version="1.0" xmlns="http://www.w3.org/2000/svg"
 width="700.000000pt" height="700.000000pt" viewBox="0 0 700.000000 700.000000"
 preserveAspectRatio="xMidYMid meet">
<metadata>
Created by potrace 1.11, written by Peter Selinger 2001-2013
</metadata>
<g transform="translate(0.000000,700.000000) scale(0.100000,-0.100000)"
fill="#000000" stroke="none">
<path d="M1150 5848 c-110 -28 -223 -118 -404 -322 -172 -195 -320 -408 -433
-626 -81 -157 -137 -296 -202 -505 -26 -82 -67 -274 -77 -360 -4 -27 -8 -53
-10 -56 -24 -42 -24 -675 0 -829 3 -14 10 -65 17 -115 7 -49 13 -92 14 -95 1
-3 5 -25 9 -50 39 -222 142 -536 250 -755 87 -177 241 -423 321 -511 6 -6 23
-27 38 -47 59 -75 192 -224 242 -270 47 -45 149 -115 190 -133 62 -26 117 -22
159 10 52 39 71 73 69 122 -2 69 -36 116 -203 289 -322 334 -508 634 -636
1025 -27 82 -80 285 -89 340 -3 19 -10 60 -15 90 -5 30 -12 78 -15 105 -3 28
-9 86 -14 130 -9 86 -7 530 4 605 16 118 38 243 56 320 23 99 97 331 110 345
5 5 9 15 9 22 0 23 100 224 167 336 115 192 237 345 447 562 112 116 172 195
180 238 2 14 -4 43 -15 64 -31 62 -96 90 -169 71z"/>
<path d="M5740 5819 c-66 -41 -89 -87 -75 -151 14 -64 35 -90 194 -253 289
-296 473 -577 604 -925 33 -86 83 -243 92 -287 2 -10 8 -38 14 -63 11 -52 15
-73 36 -190 43 -253 51 -595 20 -875 -2 -16 -6 -43 -9 -60 -2 -16 -8 -50 -11
-75 -10 -71 -53 -247 -81 -335 -71 -218 -166 -414 -292 -605 -104 -158 -172
-240 -343 -415 -167 -170 -189 -195 -216 -247 -33 -61 -12 -137 46 -171 108
-63 257 17 481 259 212 229 401 505 520 759 104 221 196 510 226 710 5 28 9
52 9 55 1 3 5 32 9 65 4 33 10 71 12 85 23 145 22 586 -1 745 -3 17 -7 48 -10
70 -7 54 -24 155 -29 180 -3 11 -12 53 -20 94 -9 40 -18 76 -21 80 -2 4 -7 22
-10 40 -3 18 -19 76 -36 129 -114 359 -292 691 -524 982 -268 336 -468 472
-585 399z"/>
<path d="M2955 5735 c-5 -2 -27 -6 -48 -10 l-38 -6 43 -36 c122 -102 209 -238
242 -382 28 -119 7 -306 -55 -486 -38 -112 -107 -269 -202 -466 -200 -411
-252 -541 -296 -737 -40 -174 -45 -217 -45 -367 -1 -235 54 -415 190 -626 161
-251 454 -470 617 -462 9 0 27 1 39 2 14 1 -6 18 -68 57 -197 123 -267 197
-327 344 -39 97 -53 217 -35 309 5 25 11 57 14 71 8 42 79 181 135 265 30 44
100 141 155 215 184 246 245 379 239 520 -1 44 -12 100 -24 135 -39 108 -41
98 21 92 31 -2 73 -13 94 -23 51 -24 126 -100 154 -154 25 -49 70 -164 76
-195 2 -11 10 -47 18 -80 18 -73 18 -237 2 -325 -11 -57 -12 -89 -7 -152 3
-45 65 -62 122 -33 38 20 86 87 100 139 11 42 13 122 4 166 -3 14 -8 48 -11
75 l-6 50 37 -50 c66 -90 122 -222 142 -335 4 -25 8 -108 7 -185 0 -119 -4
-156 -28 -250 -47 -183 -140 -371 -243 -487 -29 -32 -23 -39 7 -8 3 3 43 36
90 74 117 94 197 179 262 278 51 76 136 236 151 283 3 11 18 52 32 90 63 165
115 384 131 555 5 52 4 309 -1 355 -7 66 -20 163 -31 230 -8 49 -44 176 -69
245 -82 226 -181 367 -370 523 -33 27 -63 55 -67 61 -13 19 -9 -8 5 -34 26
-50 68 -177 81 -245 25 -136 0 -269 -72 -381 -68 -105 -143 -137 -203 -86 -56
46 -74 108 -85 277 -3 55 -8 111 -10 125 -2 14 -7 48 -10 75 -3 28 -12 79 -20
115 -8 36 -17 80 -20 99 -8 47 -60 192 -97 271 -110 233 -304 409 -532 484
-47 15 -167 28 -190 21z"/>
<path d="M1899 1970 c-44 -13 -79 -41 -106 -87 -55 -95 -21 -219 76 -270 l44
-23 1634 0 c1148 0 1647 3 1677 11 153 38 175 268 34 349 l-43 25 -1645 1
c-905 1 -1657 -2 -1671 -6z"/>
</g>
</svg>
